<svg id="Layer_1" data-name="Layer 1" xmlns="http://www.w3.org/2000/svg" viewBox="0 0 2560 1440"><path d="M1590.74,739.8c-1.73-5.26-5.61-10.77-11.5-16.38-5.58-5.48-13.11-10.75-22.38-15.67a156,156,0,0,0-33.29-12.49c-4.28-1.06-8.82-2-13.52-2.78a50.33,50.33,0,0,0-7.88-15c-8.16-10.76-20.78-19.6-37.5-26.28-18.51-7.36-42-12.33-70.12-14.78-1.65-.16-3.32-.29-5-.41q-7.65-.59-15.71-.93c-6.12-.26-12.36-.38-18.51-.38h-2.9c-5.2,0-10.41.16-15.65.36q-9,.36-18,1.08c5.34-7.11,7.92-10.51,8.23-11a1.84,1.84,0,0,0,.49-2.15,2.6,2.6,0,0,0-1.81-1.42,3.81,3.81,0,0,0-1.25-.21,4.42,4.42,0,0,0-1,.11,4.26,4.26,0,0,0-1.94,1l0,.06,0,.06c-.43.58-4,5.36-10.64,14.22l-3.74.37h0c-109.48,8-198.8,17.86-265.51,29.19-32.69,5.74-54.64,11.78-65.2,17.94-5.13,3-7.46,5.88-7.12,8.92.51,4.59,7.36,8.88,20.94,13.08,15.51,4.76,43,9.4,81.66,13.8q5,.57,10.33,1.12c2.49.27,5,.54,7.63.8,36.48,3.69,83.13,7.22,139,10.49a3.53,3.53,0,0,0,.56.05,3,3,0,0,0,1.77-.53,3,3,0,0,0,1.23-1.65l0-.1v-.1a2.28,2.28,0,0,0-.91-1.82,4.19,4.19,0,0,0-2.11-.83c-53.59-3.17-98.6-6.53-134.21-10.05l-7.83-.78c-4.87-.52-9.54-1-14-1.53-38.31-4.33-65.48-8.88-80.76-13.51-12.83-3.93-15.78-7.06-16-9-.16-1.42,1.11-2.9,3.75-4.44,9.87-5.7,31-11.42,62.81-17,53.5-9.09,121.87-17.19,203.82-24.19q28.72-2.44,59.67-4.73h.09c-11.54,15.42-26.82,36.45-45.45,62.56-19.14,26.82-38.56,55.29-57.71,84.65s-34.7,55.93-46.21,79c-11.75,23.55-15.59,39-11.76,47.37l0,.09.07.07a3.51,3.51,0,0,0,2.81,1.31,5.5,5.5,0,0,0,1.34-.18,2.68,2.68,0,0,0,1.83-1.36,1.74,1.74,0,0,0-.1-1.86c-3.44-7.61.76-23.07,12.49-46,11.82-23.07,27.63-49.69,47-79.14s38.92-57.94,58.1-84.61,34.46-47.58,45.64-62.47q12.36-.9,24.7-1.74c5.29-.19,10.56-.29,15.78-.29,6.11,0,12.27.13,18.34.37,36.37,1.48,66,6.72,88,15.59,15.62,6.27,27.31,14.46,34.76,24.34a47.08,47.08,0,0,1,6.49,11.33,192.08,192.08,0,0,0-27.88-1.92,295.73,295.73,0,0,0-47.4,4.19c-32.4,5.15-69.57,18-110.49,38.33-32.81,16.71-59.92,34-80.58,51.37s-36.31,34.4-46.42,50.56c-11.84,18.9-17.57,35.81-17,50.28.57,14.87,6.51,26,17.63,33.18a45.88,45.88,0,0,0,20.4,6.65,144.56,144.56,0,0,0,16.2.87c13.79,0,29.34-1.76,46.21-5.2,23.73-4.84,49.24-13.83,75.81-26.7A362.87,362.87,0,0,0,1412,853.79a382.3,382.3,0,0,0,59.21-57.35c25.76-31.33,39.68-58.51,41.39-80.78a58.88,58.88,0,0,0-1-17.77c3.45.64,6.79,1.37,10,2.17a147.55,147.55,0,0,1,31.48,11.7c8.73,4.61,15.87,9.58,21.21,14.77,5.16,5.17,8.64,10,10.28,14.42a2.44,2.44,0,0,0,1.46,1.58,4,4,0,0,0,1.63.33,5.52,5.52,0,0,0,.68-.06,3.11,3.11,0,0,0,2-1A2,2,0,0,0,1590.74,739.8ZM1506,715.39c-1.69,21.39-15.3,47.75-40.43,78.36a376.92,376.92,0,0,1-58.34,56.46,368.82,368.82,0,0,1-61.53,38.63c-25.75,12.43-50.5,21.11-73.57,25.85-16.76,3.43-32.08,5.19-45.55,5.19a142.12,142.12,0,0,1-14.48-.73,40.65,40.65,0,0,1-17.23-5.71c-9.71-6.18-14.85-16.06-15.26-29.35-.56-13.68,4.94-29.87,16.34-48.12,9.74-15.74,25-32.37,45.37-49.41s47.09-34,79.35-50.52c40.21-19.82,76.66-32.48,108.36-37.61a290.24,290.24,0,0,1,45.86-4,180.51,180.51,0,0,1,29.75,2.31A56.89,56.89,0,0,1,1506,715.39Z"/><path d="M924,415.41l-2.67-2.24a476.87,476.87,0,0,1,366.12-170.84h0A478.29,478.29,0,0,1,1515.13,300l-1.66,3.06a474.85,474.85,0,0,0-226-57.25h0A473.34,473.34,0,0,0,924,415.41Z"/><path d="M994.52,1097.38A482.31,482.31,0,0,1,860,933.44a478.85,478.85,0,0,1-9.48-406.76l3.19,1.41A470.74,470.74,0,0,0,813.21,720c0,147.49,66.86,284,183.45,374.67Z"/><path d="M1287.41,1197.67h-.05a477.58,477.58,0,0,1-235.93-62.26l1.72-3a474.23,474.23,0,0,0,234.21,61.81h.05c217,0,405.9-146.62,459.48-356.56l3.38.86c-25.76,100.94-85.29,192.23-167.62,257C1497.77,1162.35,1395.67,1197.67,1287.41,1197.67Z"/><path d="M958.79,892,933.55,905l-1.95-3.77,25.24-13.06-3.49-6.75,3.75-1.94L966,896.77l-3.75,1.94Z"/><path d="M1000.59,948.31l-18.22,29.57-2.79-3.52L986,963.9l-5.38-6.78L969,961l-2.8-3.54,33-11Zm-12.2,11.77,4.26-6.94-7.72,2.57Z"/><path d="M1037.31,1014.2l4-22.22,3.71,3.13-3,16.79,16.06-5.8,3.73,3.14-21.23,7.68-8.44,10-3.23-2.72Z"/><path d="M1088.77,1066.45l15.74-28.6,3.7,2-13.69,24.88,10.22,5.62-2,3.72Z"/><path d="M1190.22,1078.39a16.7,16.7,0,1,1-9.87-8.13A16.12,16.12,0,0,1,1190.22,1078.39Zm-11.11-4.06a12.44,12.44,0,1,0,7.36,6.06A12,12,0,0,0,1179.11,1074.33Z"/><path d="M1254.41,1107.39l-3.85-.31-.85,10.41-4.21-.35,2.67-32.53,9.23.76a11.19,11.19,0,0,1,6.36,3.77,11.12,11.12,0,0,1-1.28,15.66,9.09,9.09,0,0,1-3.62,2.24l6.3,11.72-5.1-.42Zm-2.38-18.2-1.12,13.66,3.84.31a6.59,6.59,0,0,0,5-1.6,6.68,6.68,0,0,0,2.4-4.69,6.85,6.85,0,0,0-6.26-7.37Z"/><path d="M1407.51,1087.72a5.45,5.45,0,0,1,.59,1.31,5,5,0,0,1,.05,2.68,5.81,5.81,0,0,1-2.69,3.58,8.55,8.55,0,0,1-1.26,3.83,10.18,10.18,0,0,1-18.71-2,10.39,10.39,0,0,1,.75-7.83,6,6,0,0,1,2.56-2.72c-2.63-1.45-4.23-3.18-4.82-5.2a7.65,7.65,0,0,1,11-8.84,9.37,9.37,0,0,1,3.13,3.14l-3.25,2.53a7.55,7.55,0,0,0-1.9-2,3.45,3.45,0,0,0-4.64,1.37,3.24,3.24,0,0,0-.28,2.6,3.64,3.64,0,0,0,1.73,2.17,5.58,5.58,0,0,0,2.27.86,12,12,0,0,0,3.58-.66l1.14,3.89-2.38.72a9.57,9.57,0,0,0-4.41,4,6.39,6.39,0,0,0-.46,4.74A6,6,0,0,0,1397,1100c1.58-.47,3-1.89,4.27-4.28a27.27,27.27,0,0,1-2.49-1.33,9.52,9.52,0,0,0-1-.43.91.91,0,0,0-.5,0h0a.32.32,0,0,0-.21.3.49.49,0,0,0,0,.17.81.81,0,0,0,.17.27l-2.67,3.22a4.94,4.94,0,0,1-1-1.18,5,5,0,0,1-.5-1.15,4.48,4.48,0,0,1,0-2.33,4.42,4.42,0,0,1,2.06-2.83,4.48,4.48,0,0,1,1.16-.53,4.41,4.41,0,0,1,2.31,0,8,8,0,0,1,2.5,1.25,3.65,3.65,0,0,0,2.5.85l.26-.05a1.12,1.12,0,0,0,.85-1,.86.86,0,0,0,0-.39c-.12-.42-.55-.79-1.3-1.11l1-4A5.23,5.23,0,0,1,1407.51,1087.72Z"/><path d="M1528,1002.71a16.71,16.71,0,1,1-12.28,3.55A16.13,16.13,0,0,1,1528,1002.71Zm-9.62,6.88a12.43,12.43,0,1,0,9.15-2.65A12,12,0,0,0,1518.39,1009.59Z"/><path d="M1572.82,950.07l32.82,11.36-2.83,3.48-11.61-4-5.46,6.71,6.33,10.53-2.85,3.5-17.85-29.8Zm14.13,9.35-7.7-2.65,4.19,7Z"/><path d="M1625.46,902l13.65,7.14-1.95,3.74-28.93-15.12,2-3.74,9.11,4.76-5.54-11.6,2.47-4.73,7.26,15.09,22.81-2.14-2.38,4.54-18.63,1.65Z"/><path d="M935.86,543.62l25.46,12.63-1.88,3.8L934,547.42l-3.38,6.82-3.79-1.87,8.65-17.44,3.78,1.87Z"/><path d="M973.36,476.38l33.09,10.55-2.74,3.55L992,486.75l-5.29,6.85L993.3,504l-2.76,3.56L972,478.19Zm14.36,9L980,482.92l4.36,6.87Z"/><path d="M1040.38,434l-21.27-7.53,3.69-3.15,16.08,5.69-3.1-16.79,3.71-3.16,4.11,22.2,8.51,9.95L1048.9,444Z"/><path d="M1104.35,404.29l-15.82-28.55,3.69-2.05L1106,398.53l10.21-5.66,2,3.71Z"/><path d="M1184.45,340.47a16.69,16.69,0,1,1-12.73-1.26A16.08,16.08,0,0,1,1184.45,340.47ZM1173,343.29a12.43,12.43,0,1,0,9.48.93A12,12,0,0,0,1173,343.29Z"/><path d="M1258,345.88l-3.85.29.79,10.42-4.21.32-2.46-32.55,9.24-.7a11.31,11.31,0,0,1,6.88,2.74,11.13,11.13,0,0,1,1.18,15.66,9.27,9.27,0,0,1-3.23,2.78l8.06,10.58-5.1.39Zm-5.2-17.61,1,13.67,3.85-.29a6.85,6.85,0,0,0-1-13.67Z"/><path d="M1410.38,362.82a5.94,5.94,0,0,1-.23,1.43,5.12,5.12,0,0,1-1.45,2.26,5.81,5.81,0,0,1-4.22,1.49,8.63,8.63,0,0,1-3.17,2.5,10.18,10.18,0,0,1-14.47-12,10.34,10.34,0,0,1,5-6.12,6.05,6.05,0,0,1,3.64-.86q-2.09-4-1.14-7a7.64,7.64,0,0,1,14-1.29,9.31,9.31,0,0,1,.88,4.35l-4.12.31a7.4,7.4,0,0,0-.48-2.71,3.34,3.34,0,0,0-2-1.66,3.39,3.39,0,0,0-4.26,2.25,3.61,3.61,0,0,0,.24,2.76,5.64,5.64,0,0,0,1.42,2,12.05,12.05,0,0,0,3.35,1.42l-1.2,3.88-2.39-.72a9.6,9.6,0,0,0-5.91.94,6.38,6.38,0,0,0-3,3.69,6,6,0,0,0,4,7.51c1.57.48,3.55.09,5.92-1.2a28,28,0,0,1-1.34-2.49,8.65,8.65,0,0,0-.59-.91.92.92,0,0,0-.4-.31h0a.33.33,0,0,0-.34.13.46.46,0,0,0-.09.15.79.79,0,0,0,0,.31l-4,1.22a5.3,5.3,0,0,1-.2-1.56,5,5,0,0,1,.22-1.24,4.58,4.58,0,0,1,4.53-3.19,4.74,4.74,0,0,1,1.26.2,4.37,4.37,0,0,1,1.94,1.25,8.19,8.19,0,0,1,1.4,2.42,3.66,3.66,0,0,0,1.6,2.09,1,1,0,0,0,.25.1,1.12,1.12,0,0,0,1.27-.35,1.08,1.08,0,0,0,.19-.35,2.07,2.07,0,0,0-.47-1.64l3-2.83A5.2,5.2,0,0,1,1410.38,362.82Z"/><path d="M1548.87,426.38A16.71,16.71,0,1,1,1543,415,16.14,16.14,0,0,1,1548.87,426.38Zm-8.65-8.08a12.43,12.43,0,1,0,4.41,8.45A12,12,0,0,0,1540.22,418.3Z"/><path d="M1603.94,479.61l-18.71,29.26-2.73-3.56,6.62-10.36-5.26-6.87-11.71,3.7-2.74-3.58,33.14-10.41Zm-12.4,11.56,4.38-6.87-7.76,2.45Z"/><path d="M1628.17,551.12l-13.88,6.66-1.83-3.8,29.43-14.13,1.83,3.81-9.28,4.45,12.61,2.5,2.32,4.82-16.44-3.22L1621,571.76l-2.22-4.61,9.83-15.93Z"/></svg>